<svg id="Capa_1" enable-background="new 0 0 512 512" height="512" viewBox="0 0 512 512" width="512" xmlns="http://www.w3.org/2000/svg"><g><g><path d="m98.312 7.135h-80.37c-9.909 0-17.942 8.033-17.942 17.942v80.369c0 9.909 8.033 17.942 17.942 17.942h80.369c9.909 0 17.942-8.033 17.942-17.942v-80.369c.001-9.909-8.032-17.942-17.941-17.942z" fill="#eaeaea"/></g><g><path d="m98.312 339.022h-80.37c-9.909 0-17.942 8.033-17.942 17.942v80.369c0 9.909 8.033 17.942 17.942 17.942h80.369c9.909 0 17.942-8.033 17.942-17.942v-80.369c.001-9.909-8.032-17.942-17.941-17.942z" fill="#eaeaea"/></g><g><path d="m98.312 173.174h-80.37c-9.909 0-17.942 8.033-17.942 17.943v80.369c0 9.909 8.033 17.942 17.942 17.942h80.369c9.909 0 17.942-8.033 17.942-17.942v-80.369c.001-9.91-8.032-17.943-17.941-17.943z" fill="#eaeaea"/></g><g><path d="m98.322 7.135h-1.54v78.849c0 9.904-8.029 17.932-17.932 17.932h-78.85v1.54c0 9.904 8.028 17.932 17.932 17.932h80.39c9.904 0 17.932-8.029 17.932-17.932v-80.389c0-9.904-8.029-17.932-17.932-17.932z" fill="#c6d0da"/></g><g><path d="m98.322 339.022h-1.54v78.849c0 9.904-8.029 17.932-17.932 17.932h-78.85v1.54c0 9.904 8.028 17.932 17.932 17.932h80.39c9.904 0 17.932-8.029 17.932-17.932v-80.389c0-9.904-8.029-17.932-17.932-17.932z" fill="#c6d0da"/></g><g><path d="m98.322 173.174h-1.54v78.849c0 9.904-8.029 17.932-17.932 17.932h-78.85v1.54c0 9.904 8.028 17.932 17.932 17.932h80.39c9.904 0 17.932-8.028 17.932-17.932v-80.389c0-9.903-8.029-17.932-17.932-17.932z" fill="#c6d0da"/></g><path d="m84.664 85.913-19.23-50.958c-.025-.068-.052-.136-.08-.204-1.341-3.264-4.487-5.371-8.015-5.371-.002 0-.004 0-.006 0-3.531.002-6.677 2.115-8.016 5.382-.023.058-.046.116-.068.174l-19.408 50.956c-1.474 3.869.469 8.2 4.336 9.673 3.868 1.474 8.199-.468 9.673-4.337l2.995-7.863h20.834l2.959 7.841c1.132 3.002 3.985 4.851 7.014 4.851.879 0 1.774-.156 2.646-.485 3.873-1.461 5.828-5.785 4.366-9.659zm-32.109-17.54 4.755-12.484 4.711 12.484z" fill="#434c54"/><path d="m75.263 226.847c1.681-2.87 2.661-6.197 2.661-9.756 0-10.691-8.697-19.388-19.389-19.388h-15.011c-4.14 0-7.496 3.356-7.496 7.496v51.683c0 1.994.794 3.906 2.208 5.312 1.404 1.399 3.306 2.184 5.288 2.184h.033s13.798-.062 17.601-.062c11.804 0 21.407-9.604 21.407-21.407 0-6.399-2.837-12.136-7.302-16.062zm-16.727-14.153c2.424 0 4.397 1.972 4.397 4.396s-1.973 4.396-4.397 4.396c-1.11 0-7.516.014-7.516.014v-8.807h7.516zm2.622 36.63c-1.889 0-6.232.015-10.139.03v-12.854c.692-.003 10.139-.008 10.139-.008 3.537 0 6.415 2.878 6.415 6.416s-2.878 6.416-6.415 6.416z" fill="#434c54"/><g><g><path d="m61.327 427.574c-18.382 0-33.338-14.955-33.338-33.337s14.955-33.338 33.338-33.338c6.68 0 13.127 1.971 18.645 5.698 3.431 2.318 4.333 6.977 2.015 10.408-2.317 3.43-6.977 4.333-10.407 2.015-3.031-2.047-6.575-3.129-10.253-3.129-10.116 0-18.346 8.23-18.346 18.346s8.23 18.346 18.346 18.346c3.694 0 6.789-1.087 9.197-3.233.471-.42.922-.886 1.339-1.383 2.661-3.172 7.387-3.587 10.56-.927 3.172 2.66 3.587 7.388.927 10.56-.881 1.051-1.842 2.041-2.855 2.943-5.162 4.6-11.791 7.031-19.168 7.031z" fill="#434c54"/></g></g><g><path d="m257.996 312.246h-64.958c-2.761 0-5-2.239-5-5v-129.068c0-2.761 2.239-5 5-5h64.958c2.761 0 5 2.239 5 5v129.068c0 2.762-2.239 5-5 5z" fill="#e49824"/></g><g><path d="m302.783 312.246h-34.787c-2.761 0-5-2.239-5-5v-129.068c0-2.761 2.239-5 5-5h34.787c2.761 0 5 2.239 5 5v129.068c0 2.762-2.238 5-5 5z" fill="#465961"/></g><g><path d="m347.571 312.246h-34.787c-2.761 0-5-2.239-5-5v-129.068c0-2.761 2.239-5 5-5h34.787c2.761 0 5 2.239 5 5v129.068c0 2.762-2.239 5-5 5z" fill="#d5b0ec"/></g><g><path d="m292.987 146.203h-20.566c-2.761 0-5-2.239-5-5v-129.068c0-2.761 2.239-5 5-5h20.566c2.761 0 5 2.239 5 5v129.068c0 2.762-2.238 5-5 5z" fill="#f6e738"/></g><g><path d="m213.605 146.203h-20.566c-2.761 0-5-2.239-5-5v-129.068c0-2.761 2.239-5 5-5h20.566c2.761 0 5 2.239 5 5v129.068c0 2.762-2.239 5-5 5z" fill="#465961"/></g><g><path d="m323.554 146.203h-20.566c-2.761 0-5-2.239-5-5v-129.068c0-2.761 2.239-5 5-5h20.566c2.761 0 5 2.239 5 5v129.068c0 2.762-2.239 5-5 5z" fill="#e49824"/></g><g><path d="m262.421 146.203h-38.816c-2.761 0-5-2.239-5-5v-129.068c0-2.761 2.239-5 5-5h38.816c2.761 0 5 2.239 5 5v129.068c0 2.762-2.239 5-5 5z" fill="#ae66d8"/></g><g><path d="m443.788 146.203h-50.117c-2.761 0-5-2.239-5-5v-129.068c0-2.761 2.239-5 5-5h50.117c2.761 0 5 2.239 5 5v129.068c0 2.762-2.238 5-5 5z" fill="#d5b0ec"/></g><g><path d="m478.229 146.203h-24.44c-2.761 0-5-2.239-5-5v-129.068c0-2.761 2.239-5 5-5h24.44c2.761 0 5 2.239 5 5v129.068c0 2.762-2.239 5-5 5z" fill="#c73044"/></g><g><path d="m383.671 146.203h-50.117c-2.761 0-5-2.239-5-5v-129.068c0-2.761 2.239-5 5-5h50.117c2.761 0 5 2.239 5 5v129.068c0 2.762-2.239 5-5 5z" fill="#465961"/></g><g><path d="m257.996 478.09h-20.264c-2.761 0-5-2.239-5-5v-129.068c0-2.761 2.239-5 5-5h20.264c2.761 0 5 2.239 5 5v129.068c0 2.761-2.239 5-5 5z" fill="#d5b0ec"/></g><g><path d="m227.732 478.09h-34.694c-2.761 0-5-2.239-5-5v-129.068c0-2.761 2.239-5 5-5h34.694c2.761 0 5 2.239 5 5v129.068c0 2.761-2.239 5-5 5z" fill="#f6e738"/></g><g><path d="m394.972 478.09h-38.816c-2.761 0-5-2.239-5-5v-129.068c0-2.761 2.239-5 5-5h38.816c2.761 0 5 2.239 5 5v129.068c0 2.761-2.239 5-5 5z" fill="#e49824"/></g><g><path d="m443.788 478.09h-38.816c-2.761 0-5-2.239-5-5v-129.068c0-2.761 2.239-5 5-5h38.816c2.761 0 5 2.239 5 5v129.068c0 2.761-2.238 5-5 5z" fill="#d5b0ec"/></g><g><path d="m478.148 478.09h-24.359c-2.761 0-5-2.239-5-5v-129.068c0-2.761 2.239-5 5-5h24.359c2.761 0 5 2.239 5 5v129.068c0 2.761-2.239 5-5 5z" fill="#465961"/></g><g><path d="m346.156 478.09h-44.054c-2.761 0-5-2.239-5-5v-129.068c0-2.761 2.239-5 5-5h44.054c2.761 0 5 2.239 5 5v129.068c0 2.761-2.239 5-5 5z" fill="#c73044"/></g><g><path d="m464.561 312.246h-34.787c-2.761 0-5-2.239-5-5v-129.068c0-2.761 2.239-5 5-5h34.787c2.761 0 5 2.239 5 5v129.068c0 2.762-2.239 5-5 5z" fill="#ae66d8"/></g><g><path d="m292.99 7.135h-8.756v115.321c0 5.52-4.475 9.994-9.994 9.994h-6.819v8.756c0 2.76 2.237 4.997 4.997 4.997h20.572c2.76 0 4.997-2.237 4.997-4.997v-129.074c0-2.76-2.237-4.997-4.997-4.997z" fill="#ecc32e"/></g><g><path d="m213.607 7.135h-8.756v115.321c0 5.52-4.475 9.994-9.994 9.994h-6.819v8.756c0 2.76 2.237 4.997 4.997 4.997h20.572c2.76 0 4.997-2.237 4.997-4.997v-129.074c0-2.76-2.237-4.997-4.997-4.997z" fill="#394949"/></g><g><path d="m323.557 7.135h-8.757v115.321c0 5.52-4.475 9.994-9.994 9.994h-6.819v8.756c0 2.76 2.237 4.997 4.997 4.997h20.572c2.76 0 4.997-2.237 4.997-4.997v-129.074c.001-2.76-2.237-4.997-4.996-4.997z" fill="#df751c"/></g><g><path d="m262.424 7.135h-8.756v115.321c0 5.52-4.475 9.994-9.994 9.994h-25.069v8.756c0 2.76 2.237 4.997 4.997 4.997h38.822c2.76 0 4.997-2.237 4.997-4.997v-129.074c0-2.76-2.237-4.997-4.997-4.997z" fill="#80499e"/></g><g><path d="m443.791 7.135h-8.756v115.321c0 5.52-4.475 9.994-9.994 9.994h-36.37v8.756c0 2.76 2.237 4.997 4.997 4.997h50.123c2.76 0 4.997-2.237 4.997-4.997v-129.074c0-2.76-2.237-4.997-4.997-4.997z" fill="#bb80e0"/></g><g><path d="m478.232 7.135h-8.756v115.321c0 5.52-4.475 9.994-9.994 9.994h-10.693v8.756c0 2.76 2.237 4.997 4.997 4.997h24.446c2.76 0 4.997-2.237 4.997-4.997v-129.074c0-2.76-2.238-4.997-4.997-4.997z" fill="#952436"/></g><g><path d="m383.674 7.135h-8.756v115.321c0 5.52-4.475 9.994-9.994 9.994h-36.37v8.756c0 2.76 2.237 4.997 4.997 4.997h50.123c2.76 0 4.997-2.237 4.997-4.997v-129.074c0-2.76-2.237-4.997-4.997-4.997z" fill="#394949"/></g><g><path d="m257.999 339.021h-8.756v115.321c0 5.52-4.475 9.994-9.994 9.994h-6.517v8.756c0 2.76 2.237 4.997 4.997 4.997h20.27c2.76 0 4.997-2.237 4.997-4.997v-129.073c0-2.76-2.237-4.998-4.997-4.998z" fill="#bb80e0"/></g><g><path d="m218.979 339.021v115.321c0 5.52-4.475 9.994-9.994 9.994h-20.946v8.756c0 2.76 2.237 4.997 4.997 4.997h34.699c2.76 0 4.997-2.237 4.997-4.997v-129.073c0-2.76-2.237-4.997-4.997-4.997h-8.756z" fill="#ecc32e"/></g><g><path d="m386.219 339.021v115.321c0 5.52-4.475 9.994-9.994 9.994h-25.069v8.756c0 2.76 2.237 4.997 4.997 4.997h38.822c2.76 0 4.997-2.237 4.997-4.997v-129.073c0-2.76-2.237-4.997-4.997-4.997h-8.756z" fill="#df751c"/></g><g><path d="m435.035 339.021v115.321c0 5.52-4.475 9.994-9.994 9.994h-25.069v8.756c0 2.76 2.237 4.997 4.997 4.997h38.822c2.76 0 4.997-2.237 4.997-4.997v-129.073c0-2.76-2.237-4.997-4.997-4.997h-8.756z" fill="#bb80e0"/></g><g><path d="m478.15 339.021h-8.756v115.321c0 5.52-4.475 9.994-9.994 9.994h-10.611v8.756c0 2.76 2.237 4.997 4.997 4.997h24.365c2.76 0 4.997-2.237 4.997-4.997v-129.073c0-2.76-2.238-4.998-4.998-4.998z" fill="#394949"/></g><g><path d="m337.402 339.021v115.321c0 5.52-4.475 9.994-9.994 9.994h-30.306v8.756c0 2.76 2.237 4.997 4.997 4.997h44.059c2.76 0 4.997-2.237 4.997-4.997v-129.073c0-2.76-2.237-4.997-4.997-4.997h-8.756z" fill="#952436"/></g><g><path d="m249.243 173.178v115.321c0 5.52-4.475 9.994-9.994 9.994h-51.21v8.756c0 2.76 2.237 4.997 4.997 4.997h64.964c2.76 0 4.997-2.237 4.997-4.997v-129.074c0-2.76-2.237-4.997-4.997-4.997z" fill="#df751c"/></g><g><path d="m294.03 173.178v115.321c0 5.52-4.475 9.994-9.994 9.994h-21.04v8.756c0 2.76 2.237 4.997 4.997 4.997h34.793c2.76 0 4.997-2.237 4.997-4.997v-129.074c0-2.76-2.237-4.997-4.997-4.997z" fill="#394949"/></g><g><path d="m347.574 173.178h-8.756v115.321c0 5.52-4.475 9.994-9.994 9.994h-21.04v8.756c0 2.76 2.237 4.997 4.997 4.997h34.793c2.76 0 4.997-2.237 4.997-4.997v-129.074c0-2.76-2.238-4.997-4.997-4.997z" fill="#bb80e0"/></g><g><path d="m464.563 173.178h-8.756v115.321c0 5.52-4.475 9.994-9.994 9.994h-21.04v8.756c0 2.76 2.237 4.997 4.997 4.997h34.793c2.76 0 4.997-2.237 4.997-4.997v-129.074c0-2.76-2.237-4.997-4.997-4.997z" fill="#80499e"/></g><g><path d="m421.555 304.915-20.67 7.107c-2.611.898-5.456-.491-6.354-3.103l-41.965-122.056c-.898-2.611.491-5.456 3.103-6.354l20.67-7.107c2.611-.898 5.456.491 6.354 3.103l41.965 122.056c.898 2.611-.491 5.456-3.103 6.354z" fill="#e49824"/></g><g><path d="m424.659 298.563-41.967-122.061c-.897-2.61-3.74-3.998-6.35-3.101l-7.823 2.69 39.15 113.868c.897 2.61-.491 5.453-3.101 6.35l-12.852 4.419 2.817 8.193c.897 2.61 3.741 3.998 6.35 3.101l20.675-7.108c2.61-.897 3.998-3.741 3.101-6.351z" fill="#df751c"/></g><g><path d="m498.612 504.865h-485.224c-7.394 0-13.388-5.993-13.388-13.387 0-7.394 5.994-13.388 13.388-13.388h485.225c7.394 0 13.388 5.994 13.388 13.388-.001 7.394-5.995 13.387-13.389 13.387z" fill="#a95e2c"/></g><g><path d="m498.612 339.022h-485.224c-7.394 0-13.388-5.994-13.388-13.388 0-7.394 5.994-13.388 13.388-13.388h485.225c7.394 0 13.388 5.994 13.388 13.388-.001 7.394-5.995 13.388-13.389 13.388z" fill="#a95e2c"/></g><g><path d="m498.612 173.178h-485.224c-7.394 0-13.388-5.994-13.388-13.388 0-7.394 5.994-13.388 13.388-13.388h485.225c7.394 0 13.388 5.994 13.388 13.388-.001 7.394-5.995 13.388-13.389 13.388z" fill="#a95e2c"/></g><g><path d="m498.612 478.09h-30.264c7.394 0 13.388 5.994 13.388 13.388s-5.994 13.388-13.388 13.388h30.264c7.394 0 13.388-5.994 13.388-13.388s-5.994-13.388-13.388-13.388z" fill="#8f4e24"/></g><g><path d="m498.612 312.246h-30.264c7.394 0 13.388 5.994 13.388 13.388s-5.994 13.388-13.388 13.388h30.264c7.394 0 13.388-5.994 13.388-13.388s-5.994-13.388-13.388-13.388z" fill="#8f4e24"/></g><g><path d="m498.612 146.402h-30.264c7.394 0 13.388 5.994 13.388 13.387 0 7.394-5.994 13.388-13.388 13.388h30.264c7.394 0 13.388-5.994 13.388-13.388 0-7.393-5.994-13.387-13.388-13.387z" fill="#8f4e24"/></g></g></svg>