<svg id="_x33_0" enable-background="new 0 0 64 64" height="512" viewBox="0 0 64 64" width="512" xmlns="http://www.w3.org/2000/svg"><g><g><g><path d="m62 14v2c0 1.1-.9 2-2 2h-22-4-2c-1.1 0-2-.9-2-2v-2h7 9 9z" fill="#ff826e"/></g><g><path d="m30 14v2c0 1.1-.9 2-2 2h-12c-.36 0-.71-.1-1-.27v-.73l1-1-.8-2h2.8 9z" fill="#ffeaa7"/></g><g><path d="m20 2-2 12h-2.8l-1.05-2.63c.25-.15.47-.34.68-.54.72-.73 1.17-1.73 1.17-2.83s-.9-2-2-2h-3l1-4z" fill="#fc6e51"/></g><g><path d="m36 2 1 12h-7-3l1-12z" fill="#fc6e51"/></g><g><path d="m52 2 3 12h-9l-2-12z" fill="#fc6e51"/></g><g><path d="m59.38 3.51 2.62 10.49h-7l-3-12h5.44c.92 0 1.72.62 1.94 1.51z" fill="#fcd770"/></g><g><path d="m44 2 2 12h-9l-1-12z" fill="#fcd770"/></g><g><path d="m28 2-1 12h-9l2-12z" fill="#fcd770"/></g><g><path d="m12 2-1 4h-1.22c-2.15 0-4.1.87-5.5 2.28-.49.49-.92 1.04-1.26 1.65l1.6-6.42c.22-.89 1.02-1.51 1.94-1.51z" fill="#fcd770"/></g><g><path d="m22.98 58.49c.62.31 1.02.95 1.02 1.66 0 1.02-.83 1.85-1.85 1.85h-4.15c-1.1 0-2-.9-2-2v-2h6z" fill="#aab2bd"/></g><g><path d="m22 48v10h-6v-10c0-1.1-.9-2-2-2h-2-4c-2.21 0-4-1.79-4-4v-2h8 2c4.42 0 8 3.58 8 8z" fill="#cf9e76"/></g><g><path d="m5.31 27.55 2.39 4.17.72 1.27c.36.63 1.02 1.01 1.74 1.01h1.84v6h-8v-9.39c0-1.8.41-3.55 1.18-5.15-.12.28-.18.59-.18.91 0 .41.11.82.31 1.18z" fill="#4fc1e9"/></g><g><path d="m7.53 24c.9 0 1.72.51 2.13 1.31l.34.68v.01l2 4-4.3 1.72-2.39-4.17c-.2-.36-.31-.77-.31-1.18 0-.32.06-.63.18-.91 0-.01 0-.01 0-.01.05-.11.1-.21.16-.31.42-.68 1.17-1.14 2.03-1.14z" fill="#4fc1e9"/></g><g><path d="m16 8c0 1.1-.45 2.1-1.17 2.83-.21.2-.43.39-.68.54-.62.4-1.36.63-2.15.63h-1.59c-1.41 0-2.63.98-2.93 2.35l-1.48 6.65-1.72-1.72c-1.46-1.46-2.28-3.44-2.28-5.5 0-1.4.37-2.72 1.02-3.85.34-.61.77-1.16 1.26-1.65 1.4-1.41 3.35-2.28 5.5-2.28h1.22 3c1.1 0 2 .9 2 2z" fill="#656d78"/></g><g><path d="m23.41 30.59c.37.36.59.86.59 1.41 0 1.1-.9 2-2 2h-1-9-1.84c-.72 0-1.38-.38-1.74-1.01l-.72-1.27 4.3-1.72h10c.55 0 1.05.22 1.41.59z" fill="#f0d0b4"/></g><g><path d="m10 22v3.99l-.34-.68c-.41-.8-1.23-1.31-2.13-1.31h-.16c-.86 0-1.61.46-2.03 1.14.19-.39.42-.77.66-1.14v-3l1.48-6.65c.3-1.37 1.52-2.35 2.93-2.35h1.59c.79 0 1.53-.23 2.15-.63l1.05 2.63.8 2-1 1v.73.27c0 2.21-1.79 4-4 4z" fill="#f0d0b4"/></g><g><path d="m12 46v3c0 .55-.45 1-1 1h-4-4c-.55 0-1-.45-1-1v-2c0-.55.45-1 1-1h5z" fill="#969faa"/></g><g><path d="m58 58h4v4h-4z" fill="#d3a06c"/></g><g><path d="m52 58v4h-7l-.03-.12c.71-.18 1.35-.55 1.86-1.05.72-.73 1.17-1.73 1.17-2.83h2z" fill="#d3a06c"/></g><g><path d="m56 54v4h-4-2v-4z" fill="#d3a06c"/></g><g><path d="m58 58v4h-6v-4h4z" fill="#b27946"/></g><g><path d="m62 54v4h-4-2v-4z" fill="#b27946"/></g><g><path d="m47.41 56.59c-.36-.37-.86-.59-1.41-.59v-2h4v4h-2c0-.55-.22-1.05-.59-1.41z" fill="#b27946"/></g><g><path d="m62 52v2h-6-6-4v-2c0-2.21 1.79-4 4-4 .28 0 .55.03.81.08.54-1.22 1.76-2.08 3.19-2.08s2.65.86 3.19 2.08c.26-.05.53-.08.81-.08.73 0 1.41.2 2 .54 1.2.69 2 1.98 2 3.46z" fill="#5cd6b3"/></g><g><path d="m22 34h10 14 9c.55 0 1 .45 1 1v2c0 .55-.45 1-1 1h-15-19c-.55 0-1-.45-1-1v-2c0-.55.45-1 1-1z" fill="#d3a06c"/></g><g><path d="m24 32c0-.55-.22-1.05-.59-1.41-.36-.37-.86-.59-1.41-.59h9 4v1c0 1.66-1.34 3-3 3h-10c1.1 0 2-.9 2-2z" fill="#aab2bd"/></g><g><path d="m38 18-3 12h-4l3-12z" fill="#ccd1d9"/></g><g><path d="m52 26v2c0 1.08-.28 2.09-.78 2.96-1.03 1.81-2.99 3.04-5.22 3.04-3.31 0-6-2.69-6-6v-3c0-.55.45-1 1-1h10c.55 0 1 .45 1 1z" fill="#ccd1d9"/></g></g><g><path d="m63 16v-2l-2.651-10.728c-.334-1.337-1.531-2.272-2.911-2.272h-50.876c-1.38 0-2.577.935-2.911 2.272l-1.576 6.302c-.684 1.249-1.075 2.682-1.075 4.204 0 2.345.913 4.549 2.571 6.207l1.429 1.429v2.29c-1.31 2.068-2 4.448-2 6.902v11.394c0 1.13.391 2.162 1.026 3h-1.026c-1.103 0-2 .897-2 2v2c0 1.103.897 2 2 2h3v10h-2v2h6v-2h-2v-10h3c1.103 0 2-.897 2-2v-2h1c.551 0 1 .448 1 1v12c0 1.654 1.346 3 3 3h4.146c1.574 0 2.854-1.28 2.854-2.854 0-1.087-.604-2.065-1.578-2.553l-.422-.211v-9.382c0-4.963-4.038-9-9-9h-1v-4h6v2c0 1.103.897 2 2 2h14v19c0 1.654-1.346 3-3 3s-3-1.346-3-3c0-.552.449-1 1-1s1 .448 1 1v1h2v-1c0-1.654-1.346-3-3-3s-3 1.346-3 3c0 2.757 2.243 5 5 5s5-2.243 5-5v-19h2v19c0 2.757 2.243 5 5 5 .342 0 .677-.035 1-.101v.101h18v-11c0-1.63-.789-3.082-2-3.997v-29.187c1.161-.414 2-1.514 2-2.816zm-4.591-12.242 2.31 9.242h-4.938l-2.5-10h4.158c.459 0 .858.312.97.758zm-24.19 25.242h-1.938l2.5-10h1.938zm-.219 2c0 1.103-.897 2-2 2h-7.184c.112-.314.184-.648.184-1s-.072-.686-.184-1zm-3.781-2h-17.601l-1.618-3.236v-2.764c2.419 0 4.44-1.728 4.9-4.013.034.001.066.013.1.013h12c.771 0 1.468-.301 2-.78.532.48 1.229.78 2 .78h.719zm-24.039-1.951c-.117-.205-.18-.44-.18-.678 0-.756.615-1.371 1.371-1.371h.165c.522 0 .992.291 1.226.758l1.859 3.717-2.485.994zm2.274-12.483c.205-.922 1.008-1.566 1.953-1.566h1.593c.565 0 1.1-.115 1.607-.289l1.219 3.048-.826.827v1.414c0 1.654-1.346 3-3 3h-2v2.338c-.448-.216-.944-.338-1.465-.338h-.164c-.127 0-.248.024-.371.037v-1.927zm10.726-1.566 1.667-10h6.066l-.833 10zm-2.027 0h-1.276l-.526-1.315c1.006-.916 1.649-2.222 1.649-3.685 0-1.654-1.346-3-3-3h-1.719l.5-2h6.039zm10.847 4h-11.586l.759-.759-.496-1.241h12.323v1c0 .551-.449 1-1 1zm.087-4 .833-10h6.16l.833 10zm-21.525-10h4.158l-.5 2h-.442c-1.799 0-3.473.546-4.867 1.479l.68-2.721c.112-.446.511-.758.971-.758zm-3.562 10.778c0-3.737 3.041-6.778 6.778-6.778h4.222c.551 0 1 .449 1 1 0 1.654-1.346 3-3 3h-1.593c-1.889 0-3.495 1.288-3.905 3.132l-1.083 4.873-.434-.434c-1.28-1.28-1.985-2.982-1.985-4.793zm8 35.222h-8v-2h8zm12 11.146c0 .47-.383.854-.854.854h-4.146c-.551 0-1-.448-1-1v-1h4.764l.764.382c.291.145.472.438.472.764zm-2-12.146v9h-4v-9c0-1.654-1.346-3-3-3h-6c-1.654 0-3-1.346-3-3v-1h9c3.86 0 7 3.141 7 7zm-10-9h-6v-8.395c0-.478.036-.951.097-1.42l2.459 4.303c.533.933 1.531 1.512 2.605 1.512h.839zm-.839-6c-.358 0-.69-.193-.868-.504l-.156-.273 3.056-1.223h9.807c.551 0 1 .449 1 1s-.449 1-1 1zm10.839 2h34v2h-34zm20-7v-3h10v3c0 2.757-2.243 5-5 5s-5-2.243-5-5zm20 24v1h-14v-1c0-1.654 1.346-3 3-3 .203 0 .407.021.607.062l.786.159.326-.733c.403-.904 1.298-1.488 2.281-1.488s1.878.584 2.281 1.487l.326.733.786-.159c.2-.04.404-.061.607-.061 1.654 0 3 1.346 3 3zm-14 3.184v-.184h2v2h-.184c-.302-.847-.969-1.514-1.816-1.816zm4 1.816v-2h4v2zm6 2v2h-4v-2zm0-2v-2h4v2zm-8.101 2h2.101v2h-3.026c.443-.584.773-1.257.925-2zm10.101 2v-2h2v2zm-1.26-13.993c-.825-1.239-2.224-2.007-3.74-2.007s-2.915.768-3.74 2.007c-2.853-.155-5.26 2.15-5.26 4.993v3.184c-1.161.414-2 1.514-2 2.816v1h2v-1c0-.552.449-1 1-1s1 .448 1 1c0 1.654-1.346 3-3 3s-3-1.346-3-3v-19h14c1.103 0 2-.897 2-2v-2c0-1.103-.897-2-2-2h-4.11c.355-.348.674-.732.949-1.148l2.59-.518c1.49-.298 2.571-1.617 2.571-3.136 0-1.763-1.435-3.198-3.198-3.198h-.802c0-1.103-.897-2-2-2h-10c-1.103 0-2 .897-2 2v3c0 1.958.81 3.728 2.11 5h-5.647c.342-.589.537-1.272.537-2v-.876l2.781-11.124h2.219v-2h-9c-.551 0-1-.449-1-1v-1h10v-2h-3.08l-.833-10h6.066l1.027 6.165 1.973-.329-.973-5.836h6.039l2.5 10h-.719v2h8v1c0 .551-.449 1-1 1h-7v2h6v28.103c-.405-.082-.826-.121-1.26-.096zm-4.74-19.007v-1h.802c.66 0 1.198.538 1.198 1.198 0 .569-.405 1.063-.963 1.175l-1.233.247c.123-.521.196-1.062.196-1.62z"/><path d="m45.781 12.875c-.47-.587-.781-.976-.781-1.875h-2c0 1.601.676 2.446 1.219 3.125.47.587.781.976.781 1.875s-.311 1.288-.781 1.875c-.543.679-1.219 1.524-1.219 3.125h2c0-.899.311-1.288.781-1.875.543-.679 1.219-1.524 1.219-3.125s-.676-2.446-1.219-3.125z"/><path d="m49 11h-2c0 1.601.676 2.446 1.219 3.125.47.587.781.976.781 1.875s-.311 1.288-.781 1.875c-.543.679-1.219 1.524-1.219 3.125h2c0-.899.311-1.288.781-1.875.543-.679 1.219-1.524 1.219-3.125s-.676-2.446-1.219-3.125c-.47-.587-.781-.976-.781-1.875z"/></g></g></svg>