<svg id="Capa_1" enable-background="new 0 0 512 512" height="512" viewBox="0 0 512 512" width="512" xmlns="http://www.w3.org/2000/svg"><g><g><path d="m463.58 239.977h-30v144.283l30-20z" fill="#c96d36"/><path d="m463.58 434.26-30-20v97.74h30z" fill="#c96d36"/><path d="m319.71 434.26v77.74h30v-97.74z" fill="#dc8758"/><path d="m319.71 364.26h143.87v70h-143.87z" fill="#c96d36"/><path d="m391.65 364.26h71.93v70h-71.93z" fill="#9f5528"/></g><g><path d="m240.7 0v210.4h-38.35l-41 41-41-41h-120.35v-210.4z" fill="#ffdf40"/><path d="m240.7 0v210.4h-38.35l-41 41-41-41v-210.4z" fill="#ffbe40"/><path d="m65.35 60.13h110v30h-110z" fill="#fff"/><path d="m65.35 120.13h110v30h-110z" fill="#fff"/><g fill="#e7f2ff"><path d="m120.35 60.13h55v30h-55z"/><path d="m120.35 120.13h55v30h-55z"/></g></g><g><path d="m512 0v150.4h-120.35l-41 41-41-41h-38.35v-150.4z" fill="#00d5ff"/><path d="m391.65 0h120.35v150.4h-120.35z" fill="#0af"/><path d="m336.65 60.13h110v30h-110z" fill="#fff"/><path d="m391.65 60.13h55v30h-55z" fill="#e7f2ff"/></g><g><g><path d="m48.42 239.977h30v144.283l-30-20z" fill="#dc8758"/><path d="m48.42 434.26 30-20v97.74h-30z" fill="#dc8758"/><g fill="#c96d36"><path d="m192.29 434.26v77.74h-30v-97.74z"/><path d="m48.42 364.26h143.87v70h-143.87z"/></g></g><path d="m120.35 364.26h71.94v70h-71.94z" fill="#9f5528"/></g></g></svg>