<svg id="Capa_1" enable-background="new 0 0 512 512" height="512" viewBox="0 0 512 512" width="512" xmlns="http://www.w3.org/2000/svg"><g><g><circle cx="105.669" cy="315.498" fill="#ffc5ae" r="39.194"/><path d="m105.669 354.692c-32.47 0-58.791 26.322-58.791 58.791v23.517h117.582v-23.517c0-32.469-26.321-58.791-58.791-58.791z" fill="#ff7a4d"/></g><g><circle cx="406.331" cy="315.498" fill="#c96d36" r="39.194"/><path d="m406.331 354.692c-32.47 0-58.791 26.322-58.791 58.791v23.517h117.582v-23.517c0-32.469-26.322-58.791-58.791-58.791z" fill="#ffbe40"/></g><g><path d="m191.887 386.293 14.051 12.97v37.737h30v-50.872l-23.702-21.879z" fill="#7a8a96"/><path d="m299.764 364.249-23.702 21.879v50.872h30v-37.737l14.051-12.97z" fill="#4d6780"/></g><path d="m30 437h452v75h-452z" fill="#dc8758"/><path d="m256 437h226v75h-226z" fill="#c96d36"/><g><g><path d="m240.7 0v210.4h-38.35l-41 41-41-41h-120.35v-210.4z" fill="#ffdf40"/><path d="m240.7 0v210.4h-38.35l-41 41-41-41v-210.4z" fill="#ffbe40"/><path d="m65.35 60.13h110v30h-110z" fill="#fff"/><path d="m65.35 120.13h110v30h-110z" fill="#fff"/><g fill="#e7f2ff"><path d="m120.35 60.13h55v30h-55z"/><path d="m120.35 120.13h55v30h-55z"/></g></g><g><path d="m512 0v150.4h-120.35l-41 41-41-41h-38.35v-150.4z" fill="#00d5ff"/><path d="m391.65 0h120.35v150.4h-120.35z" fill="#0af"/><path d="m336.65 60.13h110v30h-110z" fill="#fff"/><path d="m391.65 60.13h55v30h-55z" fill="#e7f2ff"/></g></g><path d="m256 422 10 15-10 15h-256v-30z" fill="#c96d36"/><path d="m256 422h256v30h-256z" fill="#9f5528"/></g></svg>